<?xml version="1.0" encoding="UTF-8"?>
<svg width="74px" height="80px" viewBox="0 0 74 80" version="1.1" xmlns="http://www.w3.org/2000/svg" xmlns:xlink="http://www.w3.org/1999/xlink">
    <!-- Generator: Sketch 48.1 (47250) - http://www.bohemiancoding.com/sketch -->
    <title>noun_475132_cc</title>
    <desc>Created with Sketch.</desc>
    <defs></defs>
    <g id="Page-1" stroke="none" stroke-width="1" fill="none" fill-rule="evenodd">
        <g id="noun_475132_cc" transform="translate(1.000000, 1.214844)" fill="#F5A623" fill-rule="nonzero" stroke="#F5A623">
            <g id="Group">
                <path d="M70.2248264,0 L7.16579861,0 C6.37469444,0 5.73263889,0.642055556 5.73263889,1.43315972 L5.73263889,14.3315972 L1.43315972,14.3315972 C0.642055556,14.3315972 0,14.9736528 0,15.7647569 C0,16.5558611 0.642055556,17.1979167 1.43315972,17.1979167 L5.73263889,17.1979167 L5.73263889,25.796875 L1.43315972,25.796875 C0.642055556,25.796875 0,26.4389306 0,27.2300347 C0,28.0211389 0.642055556,28.6631944 1.43315972,28.6631944 L5.73263889,28.6631944 L5.73263889,37.2621528 L1.43315972,37.2621528 C0.642055556,37.2621528 0,37.9042083 0,38.6953125 C0,39.4864167 0.642055556,40.1284722 1.43315972,40.1284722 L5.73263889,40.1284722 L5.73263889,48.7274306 L1.43315972,48.7274306 C0.642055556,48.7274306 0,49.368053 0,50.1605903 C0,50.9531276 0.642055556,51.59375 1.43315972,51.59375 L5.73263889,51.59375 L5.73263889,60.1927083 L1.43315972,60.1927083 C0.642055556,60.1927083 0,60.8333307 0,61.6258681 C0,62.4184054 0.642055556,63.0590278 1.43315972,63.0590278 L5.73263889,63.0590278 L5.73263889,75.9574653 C5.73263889,76.7500026 6.37469444,77.390625 7.16579861,77.390625 L70.2248264,77.390625 C71.0173637,77.390625 71.6579861,76.7500026 71.6579861,75.9574653 L71.6579861,1.43315972 C71.6579861,0.642055556 71.0173637,0 70.2248264,0 Z M68.7916667,74.5243056 L8.59895833,74.5243056 L8.59895833,63.0590278 L12.8984375,63.0590278 C13.6895417,63.0590278 14.3315972,62.4184054 14.3315972,61.6258681 C14.3315972,60.8333307 13.6895417,60.1927083 12.8984375,60.1927083 L8.59895833,60.1927083 L8.59895833,51.59375 L12.8984375,51.59375 C13.6895417,51.59375 14.3315972,50.9531276 14.3315972,50.1605903 C14.3315972,49.368053 13.6895417,48.7274306 12.8984375,48.7274306 L8.59895833,48.7274306 L8.59895833,40.1284722 L12.8984375,40.1284722 C13.6895417,40.1284722 14.3315972,39.4864167 14.3315972,38.6953125 C14.3315972,37.9042083 13.6895417,37.2621528 12.8984375,37.2621528 L8.59895833,37.2621528 L8.59895833,28.6631944 L12.8984375,28.6631944 C13.6895417,28.6631944 14.3315972,28.0211389 14.3315972,27.2300347 C14.3315972,26.4389306 13.6895417,25.796875 12.8984375,25.796875 L8.59895833,25.796875 L8.59895833,17.1979167 L12.8984375,17.1979167 C13.6895417,17.1979167 14.3315972,16.5558611 14.3315972,15.7647569 C14.3315972,14.9736528 13.6895417,14.3315972 12.8984375,14.3315972 L8.59895833,14.3315972 L8.59895833,2.86631944 L68.7916667,2.86631944 L68.7916667,74.5243056 Z" id="Shape"></path>
                <path d="M24.3637153,57.3263889 C25.1548194,57.3263889 25.796875,56.6857665 25.796875,55.8932292 C25.796875,47.2011155 32.8695182,40.1284722 41.5616319,40.1284722 C50.2537457,40.1284722 57.3263889,47.2011155 57.3263889,55.8932292 C57.3263889,56.6857665 57.9670113,57.3263889 58.7595486,57.3263889 C59.5520859,57.3263889 60.1927083,56.6857665 60.1927083,55.8932292 C60.1927083,47.6697587 54.8298247,40.6859714 47.4232552,38.2209366 C49.9441832,36.3965243 51.59375,33.4399158 51.59375,30.0963542 C51.59375,24.5643576 47.0921953,20.0642361 41.5616319,20.0642361 C36.0296354,20.0642361 31.5295139,24.5643576 31.5295139,30.0963542 C31.5295139,33.4399158 33.1790807,36.3965243 35.7000087,38.2209366 C28.2934392,40.6859714 22.9305556,47.6697587 22.9305556,55.8932292 C22.9305556,56.6857665 23.5726111,57.3263889 24.3637153,57.3263889 Z M34.3958333,30.0963542 C34.3958333,26.1451328 37.6104106,22.9305556 41.5616319,22.9305556 C45.5128533,22.9305556 48.7274306,26.1451328 48.7274306,30.0963542 C48.7274306,34.0475755 45.5128533,37.2621528 41.5616319,37.2621528 C37.6104106,37.2621528 34.3958333,34.0475755 34.3958333,30.0963542 Z" id="Shape"></path>
            </g>
        </g>
    </g>
</svg>