<?xml version="1.0" encoding="UTF-8"?>
<svg width="60px" height="77px" viewBox="0 0 60 77" version="1.1" xmlns="http://www.w3.org/2000/svg" xmlns:xlink="http://www.w3.org/1999/xlink">
    <!-- Generator: Sketch 48.1 (47250) - http://www.bohemiancoding.com/sketch -->
    <title>noun_1249351_cc</title>
    <desc>Created with Sketch.</desc>
    <defs></defs>
    <g id="Page-1" stroke="none" stroke-width="1" fill="none" fill-rule="evenodd">
        <g id="noun_1249351_cc" transform="translate(2.000000, 1.214844)" fill="#F5A623" fill-rule="nonzero" stroke="#F5A623" stroke-width="2.5">
            <path d="M21.3243745,21.4652005 L23.6883073,8.41180485 C24.1051951,6.09342312 22.640337,3.85260659 20.3494678,3.30432949 L7.03724746,0.336472194 C5.89367926,0.0894898274 4.69886441,0.323461405 3.73291796,0.983534105 C2.80440635,1.61739164 2.15560054,2.58442125 1.92114461,3.68393915 L0.549373359,10.2839706 C-3.54005792,30.8087745 17.2176882,67.0787515 41.2970188,72.4709341 L47.8970503,73.8427053 C48.2118428,73.9101497 48.5327685,73.9448443 48.8547019,73.9462352 C50.8948734,73.9581018 52.6487155,72.5026311 53.0131531,70.4952383 L55.903363,57.5108627 C56.3254209,55.1942133 54.8632153,52.9516597 52.573151,52.4033873 L40.0805424,49.487295 C38.8641105,49.2005854 37.5831233,49.4555239 36.5691531,50.1861218 L28.8044101,55.7939917 C24.1369369,53.7837861 11.0145213,33.7766318 11.1266787,28.8675887 L19.1502464,24.4848227 C20.29412,23.8586435 21.0933361,22.7486211 21.3243745,21.4652005 Z M18.3220072,22.9577566 L9.55647516,27.7546422 L9.47882773,28.1428794 C8.42627369,33.1899623 23.5502674,56.3030138 28.7440177,57.5885101 L29.1322548,57.6834125 L37.5871972,51.5837756 C38.1945976,51.1447222 38.9624916,50.990514 39.6923052,51.1610284 L52.1590314,54.0943758 C53.5183795,54.445743 54.3908473,55.7693586 54.1778646,57.1571355 L51.2962822,70.1501387 C51.184886,70.8396147 50.7884576,71.4503731 50.2040773,71.8328467 C49.6196971,72.2153202 48.9013299,72.3341893 48.224895,72.1603443 L41.6421185,70.7885731 C31.185598,68.4418952 20.0475056,59.2449886 11.8600156,46.1829655 C4.04350768,33.7076118 0.3940785,20.0848017 2.23173433,10.6376978 L3.60350558,4.03766633 C3.74955398,3.37520966 4.14500296,2.79439397 4.70782457,2.4156978 C5.1328653,2.12636265 5.63445163,1.97018008 6.14861576,1.96706821 C6.32823044,1.96571574 6.507498,1.98306421 6.68352028,2.01883316 L20.0302506,4.98669046 C21.4026323,5.33533808 22.277342,6.67931267 22.0404563,8.07533265 L19.633386,21.1546107 C19.4932203,21.9259793 19.0109729,22.5922422 18.3220072,22.9663841 L18.3220072,22.9577566 Z" id="Shape"></path>
        </g>
    </g>
</svg>