<?xml version="1.0" encoding="UTF-8"?>
<svg width="89px" height="63px" viewBox="0 0 89 63" version="1.1" xmlns="http://www.w3.org/2000/svg" xmlns:xlink="http://www.w3.org/1999/xlink">
    <!-- Generator: Sketch 48.1 (47250) - http://www.bohemiancoding.com/sketch -->
    <title>noun_1254038_cc</title>
    <desc>Created with Sketch.</desc>
    <defs></defs>
    <g id="Page-1" stroke="none" stroke-width="1" fill="none" fill-rule="evenodd">
        <g id="noun_1254038_cc" transform="translate(2.000000, 1.714844)" fill="#F5A623" fill-rule="nonzero" stroke="#F5A623" stroke-width="2.5">
            <g id="Group" transform="translate(0.000000, 0.246940)">
                <path d="M7.13524026,0.0915788494 C3.19995139,0.0915788494 0,3.29153024 0,7.22681911 L0,52.0769313 C0,56.0122202 3.19995139,59.2121716 7.13524026,59.2121716 L78.4876429,59.2121716 C82.4229317,59.2121716 85.6228831,56.0122202 85.6228831,52.0769313 L85.6228831,7.22681911 C85.6228831,3.29153024 82.4229317,0.0915788494 78.4876429,0.0915788494 L7.13524026,0.0915788494 Z M7.13524026,2.13021892 L78.4876429,2.13021892 C81.3287936,2.13021892 83.584243,4.38566837 83.584243,7.22681911 L83.584243,52.0769313 C83.584243,54.9180821 81.3287936,57.1735315 78.4876429,57.1735315 L7.13524026,57.1735315 C4.29408952,57.1735315 2.03864007,54.9180821 2.03864007,52.0769313 L2.03864007,7.22681911 C2.03864007,4.38566837 4.29408952,2.13021892 7.13524026,2.13021892 Z M73.7732877,12.2597118 C73.5637684,12.3062451 73.3742807,12.4177189 73.2318249,12.5782493 L46.3153542,37.392403 C44.2667248,39.2828339 41.289189,39.2841591 39.2438214,37.392403 L12.3910582,12.5782493 C12.1950477,12.3885386 11.9311822,12.2852981 11.6584729,12.2916165 C11.2413352,12.3066285 10.8754932,12.5744199 10.7351038,12.9675103 C10.5947144,13.3606006 10.7081451,13.7995609 11.0213979,14.0754266 L28.3179338,30.0659383 L11.0533026,45.1647183 C10.771885,45.4029461 10.6396309,45.7736607 10.7067156,46.1362182 C10.7738003,46.4987758 11.029945,46.7976243 11.3779719,46.9193847 C11.7259988,47.0411451 12.1125824,46.9671611 12.3910582,46.7255011 L29.8469139,31.4675034 L37.8740592,38.8894783 C40.6647536,41.4704986 44.8925873,41.4663194 47.6850145,38.8894783 L55.7440645,31.4357006 L73.2318249,46.7255011 C73.5103007,46.9671611 73.8968843,47.0411451 74.2449112,46.9193847 C74.5929381,46.7976243 74.8490828,46.4987758 74.9161675,46.1362182 C74.9832522,45.7736607 74.8509981,45.4029461 74.5695805,45.1647183 L57.2730446,30.0341355 L74.6014852,14.0754266 C74.990269,13.7895231 75.1253111,13.2701781 74.9250382,12.8311059 C74.7247652,12.3920337 74.2440564,12.1535496 73.7732877,12.2597118 Z" id="Shape"></path>
            </g>
        </g>
    </g>
</svg>